<?xml version="1.0" encoding="utf-8"?>
<!DOCTYPE svg PUBLIC "-//W3C//DTD SVG 1.1//EN" "http://www.w3.org/Graphics/SVG/1.1/DTD/svg11.dtd">
<svg version="1.1" id="Layer_1" xmlns="http://www.w3.org/2000/svg" xmlns:xlink="http://www.w3.org/1999/xlink" x="0px" y="0px"
	 viewBox="0 0 168 168" enable-background="new 0 0 168 168" xml:space="preserve">
<g>
	<g>
		<g>
			<g>
				<g>
					<path fill="#FFFFFF" d="M80.9,20c0-2.3,2.2-4.1,4.6-3.5c1.1,0.3,2,1.2,2.4,2.3c0.4,1.2,0.2,2.5-0.6,3.5
						c-0.1,0.1-0.3,0.2-0.4,0.2c-1.6-0.3-3.2-0.3-4.8,0c-0.2,0-0.3,0-0.4-0.2C81.2,21.6,80.9,20.8,80.9,20z"/>
				</g>
			</g>
			<g>
				<g>
					<path fill="#FFFFFF" d="M72.6,33.2c0-4.7,3.7-8.7,9.1-9.8c0.2,0,0.4-0.1,0.5-0.1c1.5-0.3,3-0.3,4.6,0c0.2,0,0.4,0.1,0.5,0.1
						c5.3,1.1,9.1,5.1,9.1,9.8v8.6c0,0.3-0.2,0.5-0.5,0.5H73.1c-0.3,0-0.5-0.2-0.5-0.5V33.2z"/>
				</g>
			</g>
			<g>
				<g>
					<path fill="#FFFFFF" d="M98.4,49.2c0,0.4-0.3,0.7-0.7,0.7H71.3c-0.4,0-0.7-0.3-0.7-0.7v-5.4c0-0.4,0.3-0.7,0.7-0.7h26.4
						c0.4,0,0.7,0.3,0.7,0.7V49.2z"/>
				</g>
			</g>
		</g>
		<g>
			<polygon fill="#FFFFFF" points="125.8,28.1 125,27.4 84.1,68.3 43.2,27.4 42.5,28.1 83.4,69 42.5,110 43.2,110.7 84.1,69.8 
				125,110.7 125.8,110 84.9,69 			"/>
		</g>
		<g>
			<path fill="#FFFFFF" d="M125.9,78.1l-1.8-2.8c-0.3-0.5-0.5-1.1-0.4-1.7c0.3-3.3,0.6-14.7-6.6-22.2c-0.3-0.3-0.7-0.3-1,0
				c-7.2,7.5-6.9,18.8-6.6,22.2c0,0.6-0.1,1.2-0.4,1.7l-1.7,2.8c-0.2,0.3-0.2,0.6-0.2,1v5.9c0,0.2,0.1,0.3,0.3,0.2l4.7-2.4
				c0.1-0.1,0.2,0,0.3,0.1c0.7,0.9,1.5,1.2,2.1,1.3c0.1,0,0,0.1,0,0.2v1.9c0,0.4,0.6,1.3,1.1,1.3h1.8c0.4,0,0.9-0.9,0.9-1.3v-1.9
				c0-0.1,0-0.1,0.1-0.2c0.5-0.1,1.5-0.4,2.2-1.3c0.1-0.1,0.2-0.1,0.3-0.1l4.7,2.4c0,0,0.1,0,0.1,0c0.1,0,0.2,0,0.3-0.1
				c0.1,0,0.2-0.1,0.2-0.2V79C126.3,78.7,126.1,78.4,125.9,78.1z M116.8,70.9c-0.9,0-1.7-0.3-2.4-0.9c-0.6-0.6-0.9-1.4-0.8-2.2
				c0.1-1.5,1.3-2.8,2.9-2.9c0.1,0,0.1,0,0.2,0c0.8,0,1.6,0.3,2.2,0.9c0.6,0.6,0.9,1.4,0.8,2.2C119.6,69.6,118.3,70.8,116.8,70.9z"
				/>
		</g>
		<g>
			<path fill-rule="evenodd" clip-rule="evenodd" fill="#FFFFFF" d="M101.8,98.7c-4.6-0.5-8.3-0.9-12.3,0.1
				c-1.2,0.3-2.3,1.2-3.3,1.3c-0.4,0-1.2-0.3-1.9-0.4c-0.6,0-1.3,0.3-1.8,0.2c-0.6-0.1-1.2-0.7-1.8-0.9c-4-1.6-8.1-1.5-14-0.7
				c-0.1,0.9-0.5,2.2-0.3,3c0.2,0.7,1,1,1.2,1.4c0.4,0.8,0.3,1.9,0.6,2.6c0.3,0.7,0.6,1.5,1.1,2.1c2.5,3.6,9.7,2.9,12-0.6
				c0.9-1.3,1-2.8,1.4-5c0.9-0.4,2.5-0.6,3.1,0.2c-0.4,5.3,4.1,8.2,8.9,7.7c3.6-0.4,4.9-3.4,5.8-6.5
				C101.9,102.7,101.9,100.8,101.8,98.7z M80.4,106.8c-1.5,2.1-6.5,3.2-9.2,1.3c-1.6-1.1-2.3-5.1-1.6-7.2c0.4-1,2.7-1.7,4.3-1.7
				c3.2,0,6.7,0.5,7.5,2.7C81.9,103.8,80.9,106,80.4,106.8z M97.7,107.8c-2.4,2.2-7.3,1.5-9.2-0.8c-1.2-1.4-1.6-4.6-0.2-6
				c0.9-1,2.2-1.3,4.3-1.4c2.6-0.2,5.8,0.2,6.5,1.4C100.2,102.9,99,106.6,97.7,107.8z"/>
		</g>
		<g>
			<path fill="#FFFFFF" d="M57.6,55.1H45.8c-0.9,0-1.6,0.6-1.7,1.5c0,0,0,0.1,0,0.1v11.2v13.5c0,0.9,0.8,1,1.7,1h11.9
				c0.9,0,1.5-0.2,1.5-1V67.9c0,0,0.1-11.3,0.1-11.4C59.2,55.8,58.5,55.1,57.6,55.1z M51.6,81.9c-0.5,0-0.9-0.4-0.9-0.9
				c0-0.5,0.4-0.9,0.9-0.9c0.5,0,0.9,0.4,0.9,0.9C52.5,81.5,52.1,81.9,51.6,81.9z M58.2,79c0,0.3-0.3,0.6-0.6,0.6h-12
				c-0.3,0-0.6-0.3-0.6-0.6V59.4c0-0.3,0.3-0.6,0.6-0.6h12c0.3,0,0.6,0.3,0.6,0.6V79z"/>
		</g>
	</g>
	<g>
		<g>
			<g>
				<path fill="#FFFFFF" d="M16.4,126.1c4.3,0,6.6,2.2,6.6,2.2l-1.6,2.4c0,0-1.9-1.7-4.7-1.7c-4,0-6.1,2.7-6.1,6.1
					c0,3.8,2.6,6.3,5.9,6.3c2.7,0,4.4-1.8,4.4-1.8v-2.1h-2.7v-2.8h5.6v9.3h-2.7v-0.8c0-0.4,0-0.7,0-0.7h0c0,0-1.8,1.9-5.1,1.9
					c-4.6,0-8.6-3.6-8.6-9.1C7.3,130,11.2,126.1,16.4,126.1z"/>
			</g>
			<g>
				<path fill="#FFFFFF" d="M27.4,126.4h10.6v2.8h-7.4v4.6h5.9v2.8h-5.9v4.7h7.8v2.8h-11V126.4z"/>
			</g>
			<g>
				<path fill="#FFFFFF" d="M41.7,126.4h3.2l6.7,10.2c0.7,1,1.5,2.7,1.5,2.7h0c0,0-0.2-1.7-0.2-2.7v-10.2h3.2V144h-3.2l-6.7-10.2
					c-0.7-1-1.5-2.7-1.5-2.7h0c0,0,0.2,1.7,0.2,2.7V144h-3.2V126.4z"/>
			</g>
			<g>
				<path fill="#FFFFFF" d="M60.6,126.4h10.6v2.8h-7.4v4.6h5.9v2.8h-5.9v4.7h7.8v2.8h-11V126.4z"/>
			</g>
			<g>
				<path fill="#FFFFFF" d="M74.9,126.4h5.7c1.9,0,2.8,0.1,3.6,0.5c1.8,0.8,2.9,2.5,2.9,4.8c0,2.1-1.1,4.1-3,4.8v0
					c0,0,0.2,0.2,0.6,0.9l3.6,6.6h-3.6l-3.5-6.6h-3.1v6.6h-3.2V126.4z M80.9,134.6c1.7,0,2.8-1,2.8-2.8c0-1.7-0.7-2.7-3.2-2.7h-2.4
					v5.5H80.9z"/>
			</g>
			<g>
				<path fill="#FFFFFF" d="M100,139.5h-6.2l-1.5,4.5H89l6.2-17.6h3.4l6.2,17.6h-3.3L100,139.5z M96.9,129.4c0,0-0.4,1.7-0.7,2.7
					l-1.6,4.7h4.6l-1.6-4.7C97.3,131.2,96.9,129.4,96.9,129.4L96.9,129.4z"/>
			</g>
			<g>
				<path fill="#FFFFFF" d="M109.7,129.1h-5.8v-2.8h14.8v2.8h-5.8V144h-3.2V129.1z M112.4,145.4c0.1,0.5,0.2,0.9,0.2,1.3
					c0,0.8-0.2,1.5-0.6,2.4h-2.3c0.3-0.8,0.5-1.5,0.5-2.2c0-0.5-0.1-1-0.3-1.6H112.4z"/>
			</g>
			<g>
				<path fill="#FFFFFF" d="M121,126.4h3.2V144H121V126.4z"/>
			</g>
			<g>
				<path fill="#FFFFFF" d="M137.5,139.5h-6.2l-1.5,4.5h-3.3l6.2-17.6h3.4l6.2,17.6H139L137.5,139.5z M134.4,129.4
					c0,0-0.4,1.7-0.7,2.7l-1.6,4.7h4.6l-1.6-4.7C134.8,131.2,134.4,129.4,134.4,129.4L134.4,129.4z"/>
			</g>
		</g>
		<path fill="#FFFFFF" d="M152.6,139.3c-1,0-1.7,0.1-1.7,0.1l-0.2,0v-0.4l0.1-0.1c0,0,0.8-0.7,1.7-2.1l8.8-12.5v-3.2H144v4.4h0.5
			c0,0,0,0,0,0h8.2c1,0,1.7-0.1,1.7-0.1l0.2,0v0.4l-0.1,0.1c0,0-0.8,0.7-1.7,2.1l-8.8,12.5v3.3h17.5v-4.4H152.6z"/>
	</g>
</g>
</svg>
